<svg xmlns="http://www.w3.org/2000/svg" viewBox="0 0 24 24" width="24" height="24" color="currentColor" fill="none">
    <defs></defs>
    <path fill="currentColor" d="M9.638,16.922 L7.367,21.427 C7.053,22.05 6.663,22.496 6.137,22.673 C5.618,22.846 5.158,22.684 4.936,22.604 C4.908,22.595 4.882,22.583 4.856,22.571 C4.074,22.184 3.416,21.653 2.896,21.13 C2.24,20.469 1.776,19.792 1.542,19.36 C1.225,18.793 1.136,18.192 1.426,17.633 C1.678,17.151 2.146,16.848 2.528,16.641 C2.534,16.637 2.541,16.634 2.548,16.631 L7.053,14.361 C7.078,13.589 7.457,12.905 8.033,12.468 C7.929,12.481 7.824,12.488 7.717,12.488 C6.347,12.488 5.238,11.377 5.238,10.007 C5.238,8.638 6.347,7.527 7.717,7.527 C7.84,7.527 7.961,7.536 8.079,7.554 C7.467,7.102 7.069,6.375 7.069,5.556 C7.069,4.187 8.179,3.076 9.548,3.076 C10.352,3.076 11.066,3.458 11.519,4.051 C11.505,3.945 11.498,3.837 11.498,3.727 C11.498,2.358 12.607,1.247 13.976,1.247 C15.346,1.247 16.455,2.358 16.455,3.727 C16.455,3.858 16.445,3.987 16.425,4.113 C16.876,3.493 17.606,3.09 18.431,3.09 C19.8,3.09 20.909,4.201 20.909,5.57 C20.909,6.38 20.522,7.099 19.922,7.551 C20.035,7.536 20.15,7.527 20.268,7.527 C21.637,7.527 22.746,8.638 22.746,10.007 C22.746,11.377 21.637,12.488 20.268,12.488 C20.151,12.488 20.035,12.479 19.923,12.464 C20.522,12.917 20.909,13.635 20.909,14.444 C20.909,15.813 19.8,16.924 18.431,16.924 C17.608,16.924 16.88,16.524 16.429,15.908 C16.449,16.033 16.459,16.161 16.459,16.292 C16.459,17.661 15.349,18.771 13.98,18.771 C12.611,18.771 11.501,17.661 11.501,16.292 C11.501,16.161 11.512,16.033 11.531,15.908 C11.1,16.497 10.415,16.889 9.638,16.922 Z M12.027,5.556 C12.027,6.925 10.918,8.036 9.548,8.036 C9.425,8.036 9.304,8.027 9.186,8.01 C9.798,8.461 10.196,9.188 10.196,10.007 C10.196,10.814 9.811,11.531 9.214,11.984 C9.318,11.971 9.423,11.964 9.53,11.964 C10.899,11.964 12.009,13.075 12.009,14.444 C12.009,14.575 11.999,14.703 11.979,14.827 C12.43,14.212 13.158,13.811 13.98,13.811 C14.802,13.811 15.531,14.212 15.981,14.828 C15.962,14.703 15.952,14.575 15.952,14.444 C15.952,13.075 17.061,11.964 18.431,11.964 C18.548,11.964 18.663,11.972 18.776,11.988 C18.176,11.535 17.789,10.816 17.789,10.007 C17.789,9.198 18.177,8.479 18.776,8.026 C18.663,8.042 18.548,8.05 18.431,8.05 C17.061,8.05 15.952,6.939 15.952,5.57 C15.952,5.439 15.962,5.311 15.982,5.185 C15.531,5.805 14.801,6.207 13.976,6.207 C13.173,6.207 12.459,5.825 12.006,5.232 C12.02,5.338 12.027,5.446 12.027,5.556 Z M7.473,15.829 L3.233,17.965 C3.079,18.049 2.964,18.124 2.881,18.192 C2.797,18.261 2.767,18.307 2.757,18.326 C2.752,18.335 2.749,18.342 2.751,18.366 C2.754,18.4 2.771,18.485 2.853,18.631 L2.858,18.641 C2.968,18.843 3.169,19.156 3.452,19.506 L4.568,18.367 C4.858,18.071 5.333,18.066 5.629,18.356 C5.925,18.646 5.929,19.121 5.639,19.417 L4.509,20.57 C4.806,20.81 5.132,21.029 5.482,21.207 C5.556,21.232 5.601,21.244 5.634,21.248 C5.65,21.251 5.659,21.25 5.661,21.25 L5.665,21.249 C5.668,21.247 5.673,21.245 5.679,21.24 C5.693,21.231 5.717,21.213 5.749,21.179 C5.817,21.109 5.913,20.98 6.028,20.753 L8.164,16.514 C7.891,16.333 7.656,16.1 7.473,15.829 Z M12.998,3.727 C12.998,4.269 13.436,4.707 13.976,4.707 C14.516,4.707 14.955,4.269 14.955,3.727 C14.955,3.186 14.516,2.747 13.976,2.747 C13.436,2.747 12.998,3.186 12.998,3.727 Z M6.738,10.007 C6.738,10.549 7.177,10.988 7.717,10.988 C8.257,10.988 8.696,10.549 8.696,10.007 C8.696,9.466 8.257,9.027 7.717,9.027 C7.177,9.027 6.738,9.466 6.738,10.007 Z M13.001,16.292 C13.001,16.833 13.44,17.271 13.98,17.271 C14.52,17.271 14.959,16.833 14.959,16.292 C14.959,15.75 14.52,15.311 13.98,15.311 C13.44,15.311 13.001,15.75 13.001,16.292 Z M8.551,14.444 C8.551,14.986 8.99,15.424 9.53,15.424 C10.07,15.424 10.509,14.986 10.509,14.444 C10.509,13.902 10.07,13.464 9.53,13.464 C8.99,13.464 8.551,13.902 8.551,14.444 Z M19.289,10.007 C19.289,10.549 19.728,10.988 20.268,10.988 C20.808,10.988 21.246,10.549 21.246,10.007 C21.246,9.466 20.808,9.027 20.268,9.027 C19.728,9.027 19.289,9.466 19.289,10.007 Z M8.569,5.556 C8.569,6.098 9.008,6.536 9.548,6.536 C10.088,6.536 10.527,6.098 10.527,5.556 C10.527,5.014 10.088,4.576 9.548,4.576 C9.008,4.576 8.569,5.014 8.569,5.556 Z M17.452,5.57 C17.452,6.112 17.891,6.55 18.431,6.55 C18.97,6.55 19.409,6.112 19.409,5.57 C19.409,5.029 18.97,4.59 18.431,4.59 C17.891,4.59 17.452,5.029 17.452,5.57 Z M17.452,14.444 C17.452,14.986 17.891,15.424 18.431,15.424 C18.97,15.424 19.409,14.986 19.409,14.444 C19.409,13.902 18.97,13.464 18.431,13.464 C17.891,13.464 17.452,13.902 17.452,14.444 Z"></path>
</svg>